<svg xmlns="http://www.w3.org/2000/svg" viewBox="0 0 148 120">
<path fill="#36BBA6" d="M17,72.1c-0.7-0.5-1.2-1.5-1.2-2.5c0-1.7,1.4-3.1,3.1-3.1c0.9,0,1.5,0.3,1.9,0.6c2.3,1.7,4.8,2.7,7.7,2.7
	c2.7,0,4.3-1.1,4.3-2.8v-0.1c0-1.7-1-2.5-6.1-3.8c-6.1-1.5-10-3.2-10-9.2v-0.1c0-5.5,4.4-9.1,10.5-9.1c3.7,0,6.8,0.9,9.5,2.7
	c0.7,0.4,1.5,1.3,1.5,2.6c0,1.7-1.4,3.1-3.1,3.1c-0.6,0-1.2-0.2-1.7-0.5c-2.2-1.3-4.3-2-6.3-2c-2.5,0-3.9,1.2-3.9,2.6v0.1
	c0,2,1.3,2.6,6.5,4c6.1,1.6,9.5,3.8,9.5,9v0.1c0,6-4.6,9.3-11.1,9.3C24.4,75.7,20.4,74.5,17,72.1 M43.8,60.3L43.8,60.3
	c0-8.6,6.8-15.7,16-15.7c9.3,0,16,6.9,16,15.5v0.1c0,8.6-6.8,15.6-16,15.6C50.5,75.8,43.8,68.9,43.8,60.3 M68.9,60.3L68.9,60.3
	c0-5.2-3.8-9.5-9.1-9.5c-5.3,0-9,4.2-9,9.4v0.1c0,5.2,3.8,9.5,9.1,9.5C65.2,69.7,68.9,65.5,68.9,60.3 M81.7,48.5
	c0-1.9,1.5-3.3,3.3-3.3h16.9c1.7,0,3,1.3,3,3c0,1.7-1.3,3-3,3H88.3v6.4h11.6c1.7,0,3,1.3,3,3c0,1.7-1.3,3-3,3H88.3v8.6
	c0,1.8-1.5,3.3-3.3,3.3c-1.8,0-3.3-1.5-3.3-3.3V48.5z M110.2,48.2c0-1.9,1.5-3.3,3.3-3.3c1.9,0,3.3,1.5,3.3,3.3v24
	c0,1.8-1.5,3.3-3.3,3.3c-1.8,0-3.3-1.5-3.3-3.3V48.2z M122.8,72V48.5c0-1.9,1.5-3.3,3.3-3.3h16.7c1.6,0,3,1.3,3,3
	c0,1.6-1.3,2.9-3,2.9h-13.4v6.1h11.5c1.6,0,3,1.3,3,3c0,1.6-1.3,2.9-3,2.9h-11.5v6.3H143c1.6,0,3,1.3,3,3c0,1.6-1.3,2.9-3,2.9
	h-16.9C124.2,75.3,122.8,73.8,122.8,72 M92.7,110.3c9.5-6.2,17-14.9,21.7-25.1c0.8-1.7,0-3.6-1.6-4.4c-1.7-0.8-3.6,0-4.4,1.6
	c-8.7,18.8-27.7,31-48.5,31c-29.4,0-53.4-24-53.4-53.4c0-29.4,24-53.4,53.4-53.4c20.9,0,40,12.3,48.6,31.4c0.8,1.7,2.7,2.4,4.4,1.6
	c1.7-0.8,2.4-2.7,1.6-4.4C105,13.8,83.5,0,60,0C26.9,0,0,26.9,0,60c0,33.1,26.9,60,60,60C71.7,120,83,116.6,92.7,110.3 M111.5,83.8
	c0.4-0.8,0.7-1.6,1.1-2.5"/>
</svg>
